<svg width="153" height="27" xmlns="http://www.w3.org/2000/svg"><g fill="none" fill-rule="evenodd"><path d="M26.39 11.323h-5.915V9.944h5.915v1.38zm-11.53 0h-3.33V9.944h3.332v1.38zm-8.945 0H0V9.944h5.915v1.38zM26.39 1.38H0V0h26.39v1.38zM0 12.431h5.915v1.378H0v-1.378zm20.476 0h5.914v1.378h-5.915v-1.378zm5.914-7.459v1.379H0V4.972h26.39zm0 3.865h-5.915V7.458h5.915v1.38zm-11.53 0h-3.33V7.458h3.332v1.38zm-8.945 0H0V7.458h5.915v1.38zM26.39 16.32h-5.915v-1.402h5.915v1.402zm-11.53 0h-3.33v-1.402h3.332v1.402zm-8.945 0H0v-1.402h5.915v1.402zm20.475 2.486h-5.915v-1.379h5.915v1.38zm-11.53 0h-3.33v-1.379h3.332v1.38zm-8.945 0H0v-1.379h5.915v1.38zm20.475 2.486H0v-1.379h26.39v1.379zm0 1.107v1.38H0v-1.38h26.39zm0-19.912v1.38H0v-1.38h26.39zm0 22.398v1.38H0v-1.38h26.39z" fill="#666"/><path d="M122.432 7.501l4.104 11.337h-3.43l-.65-1.798-4.077.002-.65 1.798-3.43-.002 4.099-11.337h4.034zm-12.5-.002l2.832.002v11.337h-3.437v-5.535l-3.09 3.084-3.08-3.075-.009 5.527h-3.437V7.501h2.83l3.696 4.226 3.696-4.228zm-51.22.002l4.104 11.337h-3.43l-.65-1.798-4.078.002-.65 1.798-3.43-.002 4.1-11.337h4.034zm69.36 0h2.83l4.837 5.736V7.506l3.437-.005v11.337h-2.83l-4.837-5.735v5.736h-3.437V7.5zm-30.094 0l-.005 3.153h-3.027v8.184h-3.53l-.001-8.184h-3.027V7.501h9.59zm-34.234 0h3.446l-.009 5.9c0 .703.164 1.29.505 1.694.322.38.8.596 1.446.596.65 0 1.13-.211 1.452-.593.337-.4.498-.986.498-1.71l-.008-3.913-.013-1.974h3.458v6.167c0 1.594-.534 2.875-1.457 3.761-.949.911-2.31 1.41-3.93 1.41-1.786 0-3.117-.491-4.007-1.392-.868-.878-1.322-2.148-1.375-3.737l-.006-.322V7.501zm13.36 11.337V7.498l.604-.007c3.09-.071 8.07-.545 9.24 2.575.344.919.388 1.829.219 2.64-.188.9-.638 1.68-1.23 2.216-.985.893-2.396 1.022-3.922 1.067l-.995.025-.478.015v2.81h-3.439zM41.388 7.502v4.12h3.982V7.5h3.672v11.337H45.37v-4.19h-3.982v4.19h-3.672V7.502h3.672zm99.99 0h2.83l4.836 5.736V7.506l3.437-.005v11.337h-2.831l-4.836-5.735v5.736h-3.437V7.5zm-19.834 7.023l-1.129-3.118-1.127 3.118h2.256zm-63.72 0l-1.129-3.118-1.127 3.118h2.255zm23.839-3.884l-.346.004-.443.008-.333.002v2.363l.954.002c1.065-.016 2.103-.17 2.103-1.23 0-1.02-.89-1.15-1.935-1.15z" fill="#424242"/></g></svg>